<?xml version="1.0" encoding="UTF-8" standalone="no"?>
<!-- Generated by IcoMoon.io -->

<svg
   xmlns:dc="http://purl.org/dc/elements/1.1/"
   xmlns:cc="http://creativecommons.org/ns#"
   xmlns:rdf="http://www.w3.org/1999/02/22-rdf-syntax-ns#"
   xmlns:svg="http://www.w3.org/2000/svg"
   xmlns="http://www.w3.org/2000/svg"
   xmlns:sodipodi="http://sodipodi.sourceforge.net/DTD/sodipodi-0.dtd"
   xmlns:inkscape="http://www.inkscape.org/namespaces/inkscape"
   version="1.1"
   width="1248"
   height="112"
   viewBox="0 0 1248 112"
   id="svg2"
   inkscape:version="0.91 r13725"
   sodipodi:docname="sprite.svg">
  <metadata
     id="metadata26">
    <rdf:RDF>
      <cc:Work
         rdf:about="">
        <dc:format>image/svg+xml</dc:format>
        <dc:type
           rdf:resource="http://purl.org/dc/dcmitype/StillImage" />
      </cc:Work>
    </rdf:RDF>
  </metadata>
  <defs
     id="defs24" />
  <sodipodi:namedview
     pagecolor="#ffffff"
     bordercolor="#666666"
     borderopacity="1"
     objecttolerance="10"
     gridtolerance="10"
     guidetolerance="10"
     inkscape:pageopacity="0"
     inkscape:pageshadow="2"
     inkscape:window-width="1920"
     inkscape:window-height="1018"
     id="namedview22"
     showgrid="false"
     inkscape:zoom="2.4358974"
     inkscape:cx="215.11579"
     inkscape:cy="56"
     inkscape:window-x="-8"
     inkscape:window-y="-8"
     inkscape:window-maximized="1"
     inkscape:current-layer="svg2" />
  <svg
     id="features-icon-x"
     width="32"
     height="32"
     viewBox="0 0 32 32"
     x="0"
     y="0"
     version="1.1"
     style="fill:#ffffff">
    <path
       fill="#d22954"
       d="M30 24.398l-8.406-8.398 8.406-8.398-5.602-5.602-8.398 8.402-8.402-8.402-5.598 5.602 8.398 8.398-8.398 8.398 5.598 5.602 8.402-8.402 8.398 8.402z"
       id="path5"
       style="fill:#ffffff" />
  </svg>
  <svg
     id="features-icon-menu"
     width="32"
     height="32"
     viewBox="0 0 32 32"
     x="64"
     y="0"
     version="1.1"
     style="fill:#ffffff">
    <path
       fill="#d22954"
       d="M2 6h28v6h-28zM2 14h28v6h-28zM2 22h28v6h-28z"
       id="path8"
       style="fill:#ffffff" />
  </svg>
  <svg
     id="features-icon-dropbox"
     width="48"
     height="48"
     viewBox="0 0 48 48"
     x="0"
     y="64"
     version="1.1">
    <path
       fill="#d22954"
       d="M10.768 18.938l13.232 8.17-9.161 7.634-13.125-8.545zM37.179 33.804v2.893l-13.125 7.848v0.027l-0.027-0.027-0.027 0.027v-0.027l-13.098-7.848v-2.893l3.938 2.571 9.161-7.607v-0.054l0.027 0.027 0.027-0.027v0.054l9.188 7.607zM14.839 3.161l9.161 7.634-13.232 8.143-9.054-7.232zM37.232 18.938l9.054 7.259-13.098 8.545-9.188-7.634zM33.188 3.161l13.098 8.545-9.054 7.232-13.232-8.143z"
       id="path11" />
  </svg>
  <svg
     id="features-icon-coffee"
     width="48"
     height="48"
     viewBox="0 0 48 48"
     x="80"
     y="64"
     version="1.1">
    <path
       fill="#d22954"
       d="M43.034 15.724c0-2.741-2.224-4.965-4.965-4.965h-1.655v9.931h1.655c2.741 0 4.965-2.224 4.965-4.965zM0.001 35.586h46.343c0 3.646-2.974 6.62-6.62 6.62h-33.102c-3.646 0-6.62-2.974-6.62-6.62zM47.999 15.724c0 5.482-4.448 9.931-9.931 9.931h-1.655v0.828c0 3.181-2.612 5.793-5.793 5.793h-18.206c-3.181 0-5.793-2.612-5.793-5.793v-19.034c0-0.905 0.75-1.655 1.655-1.655h29.792c5.483 0 9.931 4.448 9.931 9.931z"
       id="path14" />
  </svg>
  <svg
     id="features-icon-automobile"
     width="48"
     height="48"
     viewBox="0 0 48 48"
     x="160"
     y="64"
     version="1.1">
    <path
       fill="#d22954"
       d="M11.25 27.75c0-2.062-1.687-3.75-3.75-3.75s-3.75 1.687-3.75 3.75 1.687 3.75 3.75 3.75 3.75-1.687 3.75-3.75zM12.094 20.25h23.812l-2.086-8.367c-0.070-0.258-0.539-0.633-0.82-0.633h-17.999c-0.281 0-0.75 0.375-0.82 0.633zM44.249 27.75c0-2.062-1.687-3.75-3.75-3.75s-3.75 1.687-3.75 3.75 1.687 3.75 3.75 3.75 3.75-1.687 3.75-3.75zM47.999 25.5v9c0 0.422-0.328 0.75-0.75 0.75h-2.25v3c0 2.484-2.016 4.5-4.5 4.5s-4.5-2.016-4.5-4.5v-3h-23.999v3c0 2.484-2.016 4.5-4.5 4.5s-4.5-2.016-4.5-4.5v-3h-2.25c-0.422 0-0.75-0.328-0.75-0.75v-9c0-2.906 2.344-5.25 5.25-5.25h0.656l2.461-9.82c0.727-2.953 3.586-5.179 6.633-5.179h17.999c3.047 0 5.906 2.227 6.633 5.179l2.461 9.82h0.656c2.906 0 5.25 2.344 5.25 5.25z"
       id="path17" />
  </svg>
  <svg
     id="features-icon-bell-o"
     width="48"
     height="48"
     viewBox="0 0 48 48"
     x="240"
     y="64"
     version="1.1">
    <path
       fill="#d22954"
       d="M24.428 45.428c0-0.241-0.188-0.429-0.429-0.429-2.116 0-3.857-1.741-3.857-3.857 0-0.241-0.188-0.429-0.429-0.429s-0.429 0.188-0.429 0.429c0 2.598 2.116 4.715 4.715 4.715 0.241 0 0.429-0.188 0.429-0.429zM6.589 37.714h34.82c-4.794-5.41-7.125-12.749-7.125-22.285 0-3.455-3.268-8.571-10.285-8.571s-10.285 5.116-10.285 8.571c0 9.535-2.33 16.874-7.125 22.285zM46.284 37.714c0 1.875-1.554 3.428-3.428 3.428h-11.999c0 3.777-3.080 6.857-6.856 6.857s-6.857-3.080-6.857-6.856h-11.999c-1.875 0-3.428-1.554-3.428-3.428 3.965-3.348 8.571-9.348 8.571-22.285 0-5.143 4.259-10.767 11.356-11.812-0.134-0.321-0.215-0.67-0.215-1.045 0-1.42 1.152-2.571 2.571-2.571s2.571 1.152 2.571 2.571c0 0.375-0.080 0.723-0.215 1.045 7.098 1.045 11.356 6.669 11.356 11.812 0 12.937 4.607 18.937 8.571 22.285z"
       id="path20" />
  </svg>
</svg>
